<svg xmlns="http://www.w3.org/2000/svg" width="280" height="480" viewBox="0 0 280 480"><ellipse cx="144" cy="466" rx="107" ry="10" fill="#AE9B80" opacity=".45"/><path d="M88 310L82 447 126 447 143 327 162 447 205 447 195 310" fill="#5E5147" stroke="#423C36" stroke-width="5"/><path d="M82 442L65 459Q90 469 127 459V442M161 442V459Q194 469 222 457L204 442" fill="#3F3934"/><path d="M100 137Q142 120 187 137L216 315Q145 338 71 315Z" fill="#7C8B68" stroke="#4D5B43" stroke-width="5"/><path d="M117 134L145 180 176 134" fill="#E8D9B7" stroke="#4D5B43" stroke-width="4"/><path d="M102 145Q72 159 58 213L26 217 29 240 82 236 119 170M185 144Q215 162 227 233L199 240 166 169" fill="#7C8B68" stroke="#4D5B43" stroke-width="5"/><path d="M28 217Q5 214 4 229Q8 243 28 240M201 235Q203 259 221 257Q238 249 227 232" fill="#D7A77C" stroke="#865D42" stroke-width="4"/><path d="M119 106V143Q143 163 167 141V106" fill="#D7A77C" stroke="#865D42" stroke-width="4"/><ellipse cx="143" cy="76" rx="46" ry="57" fill="#E5B78C" stroke="#73533B" stroke-width="4"/><path d="M98 65Q88 22 119 17Q154 3 181 27L188 63 174 61 168 38Q138 47 115 35L111 65" fill="#7F7C70"/><circle cx="119" cy="80" r="16" fill="none" stroke="#4C4C44" stroke-width="4"/><circle cx="159" cy="80" r="16" fill="none" stroke="#4C4C44" stroke-width="4"/><path d="M136 78H143M113 112Q139 135 163 111" fill="none" stroke="#805943" stroke-width="4" stroke-linecap="round"/><circle cx="119" cy="81" r="3" fill="#373B36"/><circle cx="159" cy="81" r="3" fill="#373B36"/></svg>
